<svg fill="none" xmlns="http://www.w3.org/2000/svg" viewBox="1.27 1.27 37.47 37.47">
<path d="M35 2.5H5C4.33696 2.5 3.70107 2.76339 3.23223 3.23223C2.76339 3.70107 2.5 4.33696 2.5 5V35C2.5 35.663 2.76339 36.2989 3.23223 36.7678C3.70107 37.2366 4.33696 37.5 5 37.5H19.1667V24.1667H15.8333V19.1667H19.1667V15.8333C19.1667 14.0652 19.869 12.3695 21.1193 11.1193C22.3695 9.86905 24.0652 9.16667 25.8333 9.16667H30.8333V14.1667H25.8333C25.3913 14.1667 24.9674 14.3423 24.6548 14.6548C24.3423 14.9674 24.1667 15.3913 24.1667 15.8333V19.1667H30.8333L30 24.1667H24.1667V37.5H35C35.663 37.5 36.2989 37.2366 36.7678 36.7678C37.2366 36.2989 37.5 35.663 37.5 35V5C37.5 4.33696 37.2366 3.70107 36.7678 3.23223C36.2989 2.76339 35.663 2.5 35 2.5Z" stroke="#303C42" stroke-linecap="round" stroke-linejoin="round"/>
</svg>