<svg fill="none" xmlns="http://www.w3.org/2000/svg" viewBox="1.27 -0.73 37.47 37.47">
<path d="M28.3667 0.5H11.6333C6.58913 0.5 2.5 4.58913 2.5 9.63333V26.3667C2.5 31.4109 6.58913 35.5 11.6333 35.5H28.3667C33.4109 35.5 37.5 31.4109 37.5 26.3667V9.63333C37.5 4.58913 33.4109 0.5 28.3667 0.5Z" stroke="#303C42" stroke-linecap="round" stroke-linejoin="round"/>
<path d="M19.9997 27.1666C25.0623 27.1666 29.1663 23.0625 29.1663 17.9999C29.1663 12.9373 25.0623 8.83325 19.9997 8.83325C14.9371 8.83325 10.833 12.9373 10.833 17.9999C10.833 23.0625 14.9371 27.1666 19.9997 27.1666Z" stroke="#303C42" stroke-linecap="round" stroke-linejoin="round"/>
<path d="M30.0003 7.16667C30.4606 7.16667 30.8337 6.79357 30.8337 6.33333C30.8337 5.8731 30.4606 5.5 30.0003 5.5C29.5401 5.5 29.167 5.8731 29.167 6.33333C29.167 6.79357 29.5401 7.16667 30.0003 7.16667Z" stroke="#303C42" stroke-linecap="round" stroke-linejoin="round"/>
</svg>