<svg width="31" height="66" viewBox="0 0 31 66" fill="none" xmlns="http://www.w3.org/2000/svg">
<path d="M19.4586 0C19.4586 0 19.4586 0 19.4559 0H19.4532C19.1941 0.00534407 8.69564 0.320644 8.86932 13.7503C8.88001 14.4985 9.48923 15.1023 10.2374 15.1023H14.4565C15.0684 15.1023 15.5601 14.5973 15.5387 13.9854C15.4933 12.6334 15.1112 10.4049 13.2194 9.3254C13.2194 9.3254 13.6309 2.9526 19.4559 2.9526C25.281 2.9526 25.6924 9.3254 25.6924 9.3254C23.8006 10.4076 23.4185 12.636 23.3731 13.9854C23.3517 14.5973 23.8434 15.1023 24.4553 15.1023H28.6744C29.4226 15.1023 30.0345 14.4985 30.0425 13.7503C30.2135 0.317972 19.7178 0.00534407 19.4586 0Z" fill="white"/>
<path d="M19.2145 65.4838C14.8965 65.4838 11.3828 61.9701 11.3828 57.652C11.3828 53.334 14.8965 49.8203 19.2145 49.8203C23.5325 49.8203 27.0463 53.334 27.0463 57.652C27.0463 61.9701 23.5325 65.4838 19.2145 65.4838ZM19.2145 52.8531C16.5666 52.8531 14.4129 55.0067 14.4129 57.6547C14.4129 60.3027 16.5666 62.4564 19.2145 62.4564C21.8625 62.4564 24.0162 60.3027 24.0162 57.6547C24.0162 55.0067 21.8625 52.8531 19.2145 52.8531Z" fill="white"/>
<path d="M26.8248 16.7435L26.8221 16.7433C25.6605 16.6904 24.6758 17.5892 24.6229 18.7508L23.0453 53.3578C22.9924 54.5195 23.8912 55.5041 25.0528 55.5571L25.0555 55.5572C26.2172 55.6102 27.2018 54.7114 27.2547 53.5497L28.8323 18.9427C28.8853 17.7811 27.9865 16.7964 26.8248 16.7435Z" fill="white"/>
<path d="M15.3521 52.7462L4.53038 19.8401C4.46892 19.6557 4.38608 19.49 4.28455 19.335C1.82093 14.3944 0.599814 15.0224 0.599814 15.0224C-0.474344 15.3484 0.169615 19.2816 0.431475 20.6711C0.444835 20.8314 0.474227 20.9944 0.527668 21.1547L11.3494 54.0608C11.7128 55.167 12.9045 55.7682 14.0081 55.4048C15.1143 55.0414 15.7155 53.8497 15.3521 52.7462Z" fill="white"/>
</svg>
