<svg width="50" height="61" viewBox="0 0 50 61" fill="none" xmlns="http://www.w3.org/2000/svg">
<path d="M40.4164 0.00234823C40.3742 1.08935 38.9632 3.07553 38.9632 3.07553C37.193 5.2237 37.409 8.40487 39.4961 10.2901C41.5832 12.1753 44.7715 12.0673 46.7271 10.0858C48.3964 8.50817 49.6407 8.50348 49.6407 8.50348L40.4164 0V0.00234823Z" fill="white"/>
<path d="M37.3487 12.5089C35.7499 11.065 35.0784 8.98025 35.3672 6.99876C29.141 4.90693 21.91 6.93537 17.5386 12.5535C17.123 13.0888 16.7474 13.6428 16.407 14.2086C14.9255 16.4883 12.9581 20.8856 12.2632 28.7176L11.3828 44.9991L25.2368 27.201C23.7671 25.6538 23.6051 23.2286 24.955 21.4936C26.4435 19.5826 29.1974 19.2398 31.1108 20.7259C33.0242 22.2121 33.3646 24.9683 31.8785 26.8817C30.5286 28.6167 28.1362 29.0533 26.2768 28.0086L12.3712 45.8701L28.0353 40.9916C36.7923 37.9278 40.4806 34.3216 41.9033 32.4411C42.0606 32.2556 42.2155 32.0678 42.3658 31.8753C46.6105 26.4239 46.9181 19.1905 43.6805 13.7203C41.5793 14.4998 39.1306 14.1124 37.3534 12.5065L37.3487 12.5089Z" fill="white"/>
<path d="M11.2902 46.3065C11.2902 46.3065 11.1399 49.4502 4.85507 49.5981C4.85507 49.5981 0.964883 49.2999 0.0657019 51.2438C0.0657019 51.2438 -1.2772 52.8379 8.17946 52.8379C8.17946 52.8379 36.0001 52.8379 35.1737 56.3267C35.1737 56.3267 33.981 59.8154 14.6991 60.0901L11.2902 46.3042V46.3065Z" fill="white"/>
</svg>
