<svg width="102" height="107" viewBox="0 0 102 107" fill="none" xmlns="http://www.w3.org/2000/svg">
<path d="M50.7778 69.6511C28.2528 69.6511 8.12682 57.6392 0.692095 39.7635L0 38.0991H101.56L100.868 39.7635C93.4372 57.6392 73.307 69.6511 50.7778 69.6511ZM3.6558 40.5024C11.2519 56.5692 29.9257 67.2436 50.7778 67.2436C71.6298 67.2436 90.3079 56.5692 97.904 40.5024H3.66004H3.6558Z" fill="white"/>
<path d="M86.185 48.7695C86.7285 47.7887 87.2253 46.7824 87.6541 45.7549H13.9141C14.3429 46.7867 14.8354 47.7887 15.3832 48.7695H86.1893H86.185Z" fill="white"/>
<path d="M16.6655 50.8799C23.3317 60.9089 36.1037 67.694 50.7778 67.694C65.4519 67.694 78.2281 60.9047 84.8985 50.8799H16.6655Z" fill="white"/>
<path d="M53.3847 92.6136C52.3699 90.86 51.5886 89.0385 51.0154 87.1957L50.7692 86.9282L50.6291 87.0811C50.0558 88.9621 49.2576 90.8218 48.2258 92.6136C45.0795 98.0654 40.3156 101.938 35.0293 103.899H66.5388L66.5175 103.874C61.261 101.908 56.5182 98.0442 53.3847 92.6136Z" fill="white"/>
<path d="M74.5596 103.768H27.0088V106.26H74.5596V103.768Z" fill="white"/>
<path d="M51.3765 94.8044V62.1357H50.1918V94.8044H51.3765Z" fill="white"/>
<path d="M82.1641 13.9608C79.4551 9.16709 81.4338 4.27146 81.4338 4.27146C82.266 0.522257 80.8096 0 80.8096 0L73.6424 32.1549C73.6424 32.1549 71.1797 35.6323 68.6958 36.7235C67.8126 37.1099 67.0229 37.6959 66.5134 38.5154C65.3669 40.3624 64.6027 43.6997 69.9823 47.3937L72.9375 35.0803C89.2294 25.3953 82.1598 13.9608 82.1598 13.9608H82.1641Z" fill="white"/>
</svg>
