<svg width="83" height="81" viewBox="0 0 83 81" fill="none" xmlns="http://www.w3.org/2000/svg">
<path d="M0 0.000668248H27.9495C27.9495 0.000668248 37.3859 -0.143271 44.35 3.79387C44.35 3.79387 56.3307 10.8172 65.7164 10.8172L82.0491 10.8934V23.1748H67.7273C66.1312 23.1748 64.5395 23.0732 62.9561 22.8699C58.4771 22.29 49.718 20.7151 43.4398 16.8161C43.4398 16.8161 34.9601 11.6681 20.1217 11.6681H0.0423374L0 0.00490264V0.000668248Z" fill="white"/>
<path d="M0 57.4573H27.9495C27.9495 57.4573 37.3859 57.6012 44.35 53.6641C44.35 53.6641 56.3307 46.6407 65.7164 46.6407L82.0491 46.5645V34.2832H67.7273C66.1312 34.2832 64.5395 34.3848 62.9561 34.588C58.4771 35.168 49.718 36.7429 43.4398 40.6419C43.4398 40.6419 34.9601 45.7898 20.1217 45.7898H0.0423374L0 57.4531V57.4573Z" fill="white"/>
<path d="M82.053 57.8299H67.7312C66.1352 57.8299 64.5434 57.9315 62.96 58.1347C58.481 58.7147 49.7219 60.2896 43.4437 64.1886C43.4437 64.1886 34.964 69.3365 20.1257 69.3365H0.0462404L0.00390625 80.9998H27.9534C27.9534 80.9998 28.0507 80.9998 28.2285 80.9998H82.0361L82.0573 70.107V57.8257L82.053 57.8299Z" fill="white"/>
<path d="M11.9041 39.503C17.8545 39.503 22.6783 34.6792 22.6783 28.7288C22.6783 22.7784 17.8545 17.9546 11.9041 17.9546C5.95366 17.9546 1.12988 22.7784 1.12988 28.7288C1.12988 34.6792 5.95366 39.503 11.9041 39.503Z" fill="white"/>
</svg>
