<svg width="83" height="97" viewBox="0 0 83 97" fill="none" xmlns="http://www.w3.org/2000/svg">
<path d="M57.4492 63.7178C57.4492 60.2958 56.4372 57.114 54.7047 54.4424C51.0597 58.186 45.9653 60.5188 40.3263 60.5188C34.6873 60.5188 29.7773 58.2718 26.1452 54.644C22.5088 51.0118 20.2532 45.9946 20.2532 40.4457C20.2532 34.8967 22.5817 29.7123 26.3253 26.0673C23.6581 24.3392 20.4762 23.3271 17.0585 23.3271C7.6373 23.3271 0 30.9645 0 40.3857C0 49.8069 7.6373 57.4442 17.0585 57.4442C20.2146 57.4442 23.1606 56.5737 25.695 55.0814C24.2027 57.6157 23.3322 60.5617 23.3322 63.7178C23.3322 73.139 30.9695 80.7763 40.3907 80.7763C40.4464 80.7763 40.5022 80.7763 40.5579 80.7763C40.0519 82.1057 39.443 83.4222 38.7054 84.7C35.5278 90.2061 30.7165 94.1169 25.3776 96.0981H57.2005L57.179 96.0724C51.8702 94.0869 47.0803 90.1847 43.9156 84.7C43.1651 83.3964 42.5391 82.0585 42.0288 80.6991C50.6781 79.8715 57.4449 72.5901 57.4449 63.7221L57.4492 63.7178Z" fill="white"/>
<path d="M66.2614 23.8802C61.3514 23.6657 56.8402 25.5568 53.5854 28.743C56.2913 25.8699 58.0237 22.0491 58.2081 17.7952C58.6155 8.38256 51.317 0.423637 41.9043 0.0162572C32.4917 -0.391123 24.5328 6.90741 24.1254 16.32C23.9582 20.1451 25.0688 23.7344 27.0757 26.6718C27.0757 26.6718 38.0106 41.1874 27.9934 52.9457C31.8056 49.4679 41.5613 43.0613 54.0486 53.5417C54.293 53.7647 54.5417 53.9791 54.799 54.1892C54.8119 54.2021 54.8247 54.2107 54.8376 54.2235C57.5735 56.4277 61.0126 57.8085 64.7905 57.9714C74.2031 58.3788 82.1621 51.0803 82.5694 41.6677C82.9768 32.255 75.6783 24.2961 66.2657 23.8887L66.2614 23.8802ZM52.8993 29.4505V29.4334C52.9679 29.3648 53.0365 29.3005 53.1051 29.2318C53.0365 29.3047 52.9679 29.3776 52.8993 29.4505Z" fill="white"/>
</svg>
