<svg width="79" height="114" viewBox="0 0 79 114" fill="none" xmlns="http://www.w3.org/2000/svg">
<path d="M20.896 15.3652H0V104.256H20.896V15.3652Z" fill="white"/>
<path d="M0 15.3652V0C0 0 3.81323 15.3652 20.896 15.3652L12.4089 20.5742L0 15.3652Z" fill="white"/>
<path d="M0 104.383V113.398C0 113.398 3.81323 104.383 20.896 104.383L12.4089 101.326L0 104.383Z" fill="white"/>
<path d="M78.959 15.3652V0C78.959 0 75.1458 15.3652 58.063 15.3652L66.5501 20.5742L78.959 15.3652Z" fill="white"/>
<path d="M23.4595 15.3652V104.256H62.5385V104.23L78.9739 87.738H79.0001V15.3652H23.4595ZM49.3999 23.0927C51.5366 23.0927 53.2655 24.8253 53.2655 26.9583C53.2655 29.0914 51.5329 30.824 49.3999 30.824C47.2669 30.824 45.5343 29.0914 45.5343 26.9583C45.5343 24.8253 47.2669 23.0927 49.3999 23.0927ZM57.4417 92.9769C55.9935 93.8114 53.8343 97.5648 53.8343 97.5648C52.2327 99.3573 51.4506 97.591 51.4506 97.591C50.5225 96.2101 52.5395 95.675 52.5395 95.675L54.1 91.3267L46.0095 75.9465C46.0095 75.9465 44.3518 73.2746 47.0236 73.69C48.2698 73.8846 49.3737 74.5994 50.1184 75.6172L50.6535 76.3469C50.6535 76.3469 54.7661 75.8155 55.6941 79.1311L56.9814 88.55L58.7664 90.4023C60.4392 91.7383 57.4492 92.9807 57.4492 92.9807L57.4417 92.9769ZM60.2483 55.3499C60.2483 55.3499 56.2854 64.5929 43.6482 72.3279L41.7622 93.4559L42.1215 96.0006C42.694 98.0625 39.5431 97.3178 39.5431 97.3178C37.8816 97.1457 33.9299 98.9232 33.9299 98.9232C31.5836 99.4396 31.984 97.5498 31.984 97.5498C32.0402 95.8883 33.9898 96.633 33.9898 96.633L37.7993 94.021L36.2912 44.7858C36.2912 44.7858 36.2912 35.7299 46.8552 35.9207C46.8552 35.9207 65.3414 37.2417 60.2483 55.3499ZM62.5422 101.225V87.738H75.9802L62.5422 101.225Z" fill="white"/>
</svg>
