<svg width="106" height="101" viewBox="0 0 106 101" fill="none" xmlns="http://www.w3.org/2000/svg">
<path d="M9.01553 11.5738L2.94393 13.5902C0.692064 14.3409 -0.529362 16.7748 0.221261 19.0267L20.5236 80.1114C21.2742 82.3633 23.7082 83.5847 25.9601 82.8341L31.8407 80.8798L9.01553 11.5693V11.5738Z" fill="white"/>
<path d="M38.8629 37.4548C40.6839 36.4022 42.4961 35.9669 44.095 35.7892C46.8221 35.4827 49.8024 36.5043 52.4807 38.7606L63.1448 46.6888L48.6032 2.94393C47.8526 0.692064 45.4186 -0.529362 43.1667 0.221261L14.1812 9.85499L37.0063 79.1654L54.7103 72.7341L38.1078 40.324C37.7569 39.7022 38.241 37.8057 38.8629 37.4459V37.4548Z" fill="white"/>
<path d="M105.624 85.6102C105.624 85.6102 92.4899 70.5978 84.7971 44.1439L82.4608 37.4371C82.4608 37.4371 79.8004 31.441 72.1609 29.0071C72.1609 29.0071 61.6255 25.3206 57.8324 24.3745C57.8324 24.3745 60.8216 35.4606 68.0969 39.8311L67.1597 52.9648L50.2729 40.3952C50.2729 40.3952 46.4221 36.7087 41.0878 39.7867C40.5503 40.0976 40.3549 40.7772 40.6614 41.3146L61.5278 77.9219C61.5278 77.9219 70.1577 91.8062 82.3542 96.1234C82.3542 96.1234 95.8654 97.6246 98.8679 101L105.624 85.6147V85.6102Z" fill="white"/>
</svg>
