<svg width="67" height="96" viewBox="0 0 67 96" fill="none" xmlns="http://www.w3.org/2000/svg">
<path d="M33.2794 29.4444C46.3742 29.4444 57.699 37.0063 63.1303 48C65.3231 43.5619 66.5589 38.5632 66.5589 33.2794C66.5589 14.9008 51.658 0 33.2794 0C14.9009 0 0 14.9008 0 33.2794C0 38.5665 1.23573 43.5619 3.42857 48C8.85987 37.0063 20.1879 29.4444 33.2794 29.4444Z" fill="white"/>
<path d="M33.2794 66.5556C20.1847 66.5556 8.85987 58.9937 3.42857 48C1.23573 52.4381 0 57.4368 0 62.7206C0 81.0992 14.9009 96 33.2794 96C51.658 96 66.5589 81.0992 66.5589 62.7206C66.5589 57.4335 65.3231 52.4381 63.1303 48C57.699 58.9937 46.3709 66.5556 33.2794 66.5556Z" fill="white"/>
<path d="M33.2794 64.4018C22.4267 64.4018 12.6982 58.3543 7.88638 48.616L7.58154 47.9997L7.88638 47.3835C12.6982 37.6485 22.4267 31.5977 33.2794 31.5977C44.1322 31.5977 53.8607 37.6452 58.6725 47.3835L58.9773 47.9997L58.6725 48.616C53.8607 58.351 44.1322 64.4018 33.2794 64.4018ZM10.702 47.9997C15.1401 56.4138 23.728 61.6157 33.2794 61.6157C42.8309 61.6157 51.4188 56.4171 55.8569 47.9997C51.4188 39.5856 42.8309 34.3838 33.2794 34.3838C23.728 34.3838 15.1401 39.5824 10.702 47.9997Z" fill="white"/>
<path d="M33.2792 59.6721C39.3599 59.6721 44.2893 54.7427 44.2893 48.662C44.2893 42.5812 39.3599 37.6519 33.2792 37.6519C27.1984 37.6519 22.269 42.5812 22.269 48.662C22.269 54.7427 27.1984 59.6721 33.2792 59.6721Z" fill="white"/>
</svg>
