<svg width="74" height="103" viewBox="0 0 74 103" fill="none" xmlns="http://www.w3.org/2000/svg">
<path d="M74 36.8367C74 16.4936 57.4372 0 37 0C16.5628 0 0 16.4897 0 36.8367C0 47.6987 4.7267 57.4652 12.2391 64.2077C17.5043 69.3725 22.2581 75.1468 26.3455 81.5036C30.1463 87.4129 33.1566 93.5228 35.4503 99.7175L36.1515 101.97C36.2794 102.556 36.6242 103 37.0387 103C37.4533 103 37.771 102.626 37.9143 102.094H37.9376L38.7977 99.2083C41.0681 93.1872 44.0242 87.2509 47.7203 81.5036C51.9085 74.9887 56.794 69.0833 62.2142 63.8181H62.1832C69.4515 57.0911 74 47.4943 74 36.8367ZM28.2091 16.9873L35.4541 9.77426C36.2794 8.95267 37.616 8.95267 38.4413 9.77426L45.8258 17.1262C46.3837 17.6816 46.3837 18.5842 45.8258 19.1396C45.5468 19.4174 45.1787 19.5562 44.8146 19.5562C44.4504 19.5562 44.0823 19.4174 43.8034 19.1396L38.4025 13.7626V28.1232C38.4025 28.9563 37.6858 29.6236 36.8295 29.5426C36.0857 29.4732 35.5394 28.8059 35.5394 28.0615V13.7202L30.1928 19.0432C29.6 19.6334 28.6198 19.5987 28.0735 18.9391C27.597 18.3643 27.6822 17.5119 28.213 16.9834L28.2091 16.9873ZM37.2518 85.0214C35.3302 85.0214 33.7727 83.4708 33.7727 81.5576C33.7727 79.6444 35.3302 78.0938 37.2518 78.0938C39.1735 78.0938 40.731 79.6444 40.731 81.5576C40.731 83.4708 39.1735 85.0214 37.2518 85.0214ZM54.5624 44.0613C55.1048 43.5213 56.0347 43.7913 56.1935 44.5435C57.3481 49.8935 59.2039 65.901 38.8868 61.7545V68.1305C38.8868 69.0447 38.1429 69.7891 37.2208 69.7891C36.2987 69.7891 35.5549 69.0485 35.5549 68.1305V61.7661C15.292 65.874 17.1479 49.8857 18.3024 44.5435C18.4651 43.7952 19.3911 43.5213 19.9335 44.0613L35.5549 59.6137V42.0208C15.292 46.1288 17.1479 30.1405 18.3024 24.7982C18.4651 24.0499 19.3911 23.7761 19.9335 24.3161L37.2286 41.5348H37.2596L54.5547 24.3161C55.0971 23.7761 56.0269 24.0461 56.1858 24.7982C57.3403 30.1482 59.1961 46.1558 38.8791 42.0093V59.6639L54.5508 44.0613H54.5624Z" fill="white"/>
</svg>
