<svg width="101" height="86" viewBox="0 0 101 86" fill="none" xmlns="http://www.w3.org/2000/svg">
<path d="M45.2969 58.3765L19.7858 12.3411C19.1503 11.1944 19.1103 9.81662 19.6792 8.6344L22.5236 2.72775C13.5725 0.172202 10.2481 8.80773 10.2481 8.80773C8.15033 16.1499 3.52368 22.7544 0.963688 26.0299C-0.111864 27.4032 -0.302975 29.2654 0.470356 30.8254L20.7903 71.3587C21.1236 72.0209 22.1058 71.8964 22.2525 71.172C22.9992 67.5142 25.3681 61.0653 32.7769 61.4609C33.5191 61.4609 34.1191 62.0609 34.1191 62.8031V79.9586C34.1191 81.3808 36.0169 81.8697 36.7013 80.6208L45.3058 64.9631C46.4347 62.9098 46.4302 60.4209 45.2924 58.372L45.2969 58.3765Z" fill="white"/>
<path d="M100.03 26.0346C97.4655 22.7591 92.8433 16.1547 90.7455 8.81245C90.7455 8.81245 87.4211 0.17248 78.47 2.73247L81.3144 8.63912C81.8833 9.81689 81.8433 11.1991 81.2077 12.3458L55.6967 58.3812L40.3145 83.35C39.8479 84.1055 40.3945 85.0833 41.2834 85.0833H64.7856C65.9722 85.0833 66.9278 84.1144 66.9144 82.9278L66.8789 79.9411V62.8123C66.8789 62.0701 67.4789 61.4701 68.2211 61.4701C75.63 61.0745 77.9989 67.5234 78.7455 71.1811C78.8922 71.9056 79.8789 72.03 80.2077 71.3678L100.528 30.8346C101.305 29.2746 101.11 27.4124 100.034 26.0391L100.03 26.0346Z" fill="white"/>
<path d="M76.1904 2.08333C74.5238 -1.25 71.026 0.416665 71.026 0.416665C66.1949 4.74998 52.6972 9.41219 52.6972 9.41219L50.6038 15.3188L48.5105 9.41219C48.5105 9.41219 35.0128 4.74554 30.1817 0.416665C30.1817 0.416665 26.6839 -1.25 25.0172 2.08333L22.3506 9.41219C22.3506 9.41219 32.1817 25.741 39.8439 31.5721C39.8439 31.5721 39.8439 7.52775 45.4572 12.8611C45.715 13.1055 45.9905 13.3233 46.275 13.5366L50.1772 16.5188L50.4038 16.7099L50.5994 16.8433L50.8083 16.6699L51.0216 16.5188L54.9238 13.5366C55.2038 13.3233 55.4838 13.1055 55.7416 12.8611C61.3549 7.52775 61.3549 31.5721 61.3549 31.5721C69.0171 25.741 78.8482 9.41219 78.8482 9.41219L76.1815 2.08333H76.1904Z" fill="white"/>
<path d="M51.3237 21.3188H50.0659V55.5765H51.3237V21.3188Z" fill="white"/>
</svg>
