<?xml version="1.0" encoding="UTF-8"?>
<svg id="Layer_1" data-name="Layer 1" xmlns="http://www.w3.org/2000/svg" viewBox="0 0 1080 1080">
  <defs>
    <style>
      .cls-1 {
        fill: #3f2212;
        stroke-width: 0px;
      }
    </style>
  </defs>
  <g>
    <g>
      <g>
        <path class="cls-1" d="m356.11,171.73l9.2-3.24c5.62-1.98,17.44-7.41,27-10.77,34.98-12.32,57.38.63,68.67,32.65,12.55,35.61.32,63.21-32.65,74.51-9.46,3.18-19.22,5.51-26.94,8.23l-8.5,2.99-36.77-104.37Zm54.03,78.95c3.55-.22,8.99-1.83,13.91-3.56,15.8-5.8,22.59-20.59,13.66-45.94-9.4-26.69-22.06-32.81-41.09-26.1-4.14,1.46-8.82,3.66-11.31,5.09l24.84,70.52Z"/>
        <path class="cls-1" d="m486.03,192.95c.74-38.65,22.79-55.25,52.8-55.92,30.83-.67,49.89,21.6,49.3,56.37-.74,38.65-21.74,56.07-51.38,56.67-32.17.6-51.38-22.41-50.71-57.12Zm77-.3c0-21.52-8.04-37.31-24.65-37.31-14.89,0-27.25,10.2-27.25,38.42,0,21.67,8.71,38.35,26.06,38.35,15.94,0,25.84-11.99,25.84-39.47Z"/>
        <path class="cls-1" d="m602.9,254.09l32.85-105.67,21.83,6.79,19.6,73.16,2.77,17.94,5.3-25.33,16.2-52.12,21.48,6.68-32.85,105.67-23.4-7.27-18.31-70.81-3.15-19.23-5.13,25.78-15.87,51.06-21.33-6.63Z"/>
      </g>
      <g>
        <path class="cls-1" d="m188.09,762.61l89.13-66.75,22.96,24.41-32.12,51.06-14.77,21.15,21.4-14.09,52.07-29.85,22.14,23.54-71.33,85.68-16.32-17.36,40.8-45.53,21.72-22.88-28.23,16.83-56.11,29.46-13.93-14.81,32.03-55.07,18.23-27.47-24.32,20.11-47.64,38.26-15.71-16.71Z"/>
        <path class="cls-1" d="m368.38,900.21l-33.64-22.44-18.26,15.03-21.5-14.34,94.86-70.81,22.49,15-28.95,114.78-21.74-14.51,6.74-22.72Zm-19.57-34l24.72,16.49,11.08-37.27,4.51-12.93-10.33,9.04-29.98,24.67Z"/>
        <path class="cls-1" d="m455.69,948.39l-24.31-4.04,18.13-109.16,8.89,1.48c7.49,1.24,17.31,1.67,31.64,4.05,19.98,3.32,38.4,14.23,34.09,40.16-2.78,16.75-11.3,25.3-23.04,28.26,7.88,8.48,9.41,27,14.55,40.99,1.02,2.96,2.12,5.86,3.15,8.75l-26.81-4.45c-.98-1.82-1.38-3.48-2.66-8.52-3.68-13.75-3.76-33.24-13.08-36.22-3.48-.43-7.91-1.01-13.79-1.99l-6.76,40.7Zm9.58-57.67c2.86.93,10.57,2.28,14.17,2.88,12.05,2,19.12-4.67,21.01-16.06,1.57-9.48-1.23-17.57-16.44-20.09-4.48-.74-9.26-1.08-13.07-.81l-5.66,34.08Z"/>
        <path class="cls-1" d="m587.9,954.16l-24.51,2.61-11.73-110.03,8.96-.95c7.55-.8,17.13-3.02,31.57-4.56,20.14-2.15,40.81,3.44,43.59,29.58,1.8,16.88-4.12,27.4-14.64,33.39,9.86,6.06,16.28,23.5,24.99,35.61,1.77,2.58,3.61,5.08,5.38,7.59l-27.03,2.88c-1.43-1.5-2.26-2.98-4.84-7.5-7.22-12.26-12.52-31.02-22.29-31.4-3.46.52-7.89,1.14-13.82,1.77l4.37,41.02Zm-6.19-58.13c3.01.13,10.79-.62,14.42-1.01,12.14-1.29,17.17-9.62,15.95-21.1-1.02-9.55-5.89-16.6-21.22-14.96-4.52.48-9.21,1.43-12.82,2.71l3.66,34.36Z"/>
        <path class="cls-1" d="m670.49,883.98c-21.48-32.14-12.88-58.36,11.36-76.06,24.91-18.17,53.28-10.8,72.67,18.08,21.48,32.14,14.21,58.44-9.77,75.87-26.06,18.88-54.97,10.98-74.26-17.88Zm63.01-44.25c-12.3-17.66-27.92-26.02-41.55-16.52-12.22,8.51-16.53,23.95-.4,47.11,12.39,17.78,29.07,26.49,43.31,16.57,13.08-9.11,14.35-24.61-1.36-47.15Zm-72.38-37.34c.6-3.05,4.85-26.52,3.6-30.92l19.14-1.71c-.37,10.42-4.23,27.54-8.73,33.58l-14-.95Z"/>
        <path class="cls-1" d="m816.78,839.15l-76.45-80,16.53-15.79,73.48,18.36,17.03,6.28-19.58-16.93-37.71-39.46,16.26-15.54,76.45,80-17.71,16.93-70.79-18.36-18.34-6.58,20.05,16.99,36.94,38.65-16.15,15.43Z"/>
      </g>
    </g>
    <path class="cls-1" d="m387.35,370.1v310.66h55.35s28.75-.03,28.75-.03c39.67,0,52.99-41.12,52.99-129.17s-12.53-125.89-52.4-125.89h-29.55l.02,235.47h-35.54v-271.43h271.06v271.43h-35.25l.02-235.47h-29.55c-39.87,0-52.4,39.3-52.4,125.89s13.32,129.17,52.99,129.17l28.94.03h0s54.87,0,54.87,0v-310.66h-310.3Z"/>
  </g>
  <path class="cls-1" d="m205.8,688.87c-18.97-44.64-28.59-92.07-28.59-140.97,0-118.47,58.26-229.47,155.85-296.92l10.61,15.36c-92.54,63.96-147.79,169.22-147.79,281.56,0,46.38,9.12,91.35,27.1,133.67l-17.18,7.3Z"/>
  <path class="cls-1" d="m872.42,688.87l-17.18-7.3c17.98-42.32,27.1-87.29,27.1-133.67,0-112.34-55.25-217.59-147.79-281.56l10.61-15.36c97.59,67.45,155.85,178.45,155.85,296.92,0,48.9-9.62,96.33-28.59,140.97Z"/>
</svg>