<?xml version="1.0" encoding="UTF-8"?>
<svg id="Layer_1" data-name="Layer 1" xmlns="http://www.w3.org/2000/svg" viewBox="0 0 1080 1080">
  <defs>
    <style>
      .cls-1 {
        fill: #3f2212;
        stroke-width: 0px;
      }
    </style>
  </defs>
  <g>
    <g>
      <path class="cls-1" d="m154.25,487.22l1.28-8.38c.78-5.12,1.45-16.41,2.77-25.11,4.85-31.87,23.94-43.76,53.13-39.32,32.45,4.94,48.62,25.6,43.8,55.51-1.43,8.56-3.63,17-4.7,24.03l-1.18,7.74-95.1-14.47Zm82.65-9.16c1.28-2.82,2.28-7.64,2.96-12.12,2.01-14.49-6.56-25.75-29.66-29.26-24.32-3.7-34.19,3.51-36.83,20.85-.57,3.78-.8,8.26-.72,10.76l64.25,9.78Z"/>
      <path class="cls-1" d="m223.65,396.23c-29.34-16.37-33.07-40.07-21.31-63.37,12.09-23.92,36.97-29.44,63.4-14.76,29.34,16.38,34.12,39.61,22.46,62.59-12.7,24.92-38.2,30.25-64.55,15.54Zm31.26-59.19c-16.51-8.8-31.91-9.09-38.7,3.65-6.09,11.42-3.32,25.08,18.33,36.62,16.62,8.86,32.98,9,40.08-4.31,6.52-12.22,1.37-24.72-19.71-35.96Z"/>
      <path class="cls-1" d="m318.34,331.59l-67.63-68.41,14.13-13.97,64.13,14.88,14.89,5.21-17.27-14.43-33.36-33.74,13.9-13.74,67.63,68.41-15.15,14.97-61.8-14.91-16.03-5.45,17.68,14.47,32.68,33.05-13.81,13.65Z"/>
    </g>
    <g>
      <path class="cls-1" d="m422.33,241.05l-17.11-95.27,27.92-8.32,27.15,44.86,10.67,19.72-2.61-22.12-2.89-52.09,26.92-8.02,38.76,88.82-19.85,5.92-19.46-49.45-9.31-25.8,2.07,28.49,1.01,55.08-16.94,5.05-30.3-46.36-14.23-24.87,6.14,26.74,11.15,51.93-19.11,5.69Z"/>
      <path class="cls-1" d="m611.85,195.87l-34.92-3.98-8.14,18.88-22.32-2.54,45.19-92.45,23.35,2.66,23.24,100.24-22.57-2.57-3.82-20.24Zm-28.64-18.51l25.66,2.92-6.25-33.22-1.66-11.79-4.39,11.1-13.37,30.99Z"/>
      <path class="cls-1" d="m677.43,235.6l-19.32-9.27,41.61-86.72,7.06,3.39c5.95,2.86,14.05,5.59,25.43,11.05,15.87,7.62,28.6,21.19,18.72,41.79-6.38,13.31-15.57,18.38-26.08,18,4.52,8.99,1.3,24.82,2.21,37.75.13,2.72.35,5.41.51,8.07l-21.3-10.22c-.38-1.76-.31-3.24-.16-7.76.26-12.37,4.92-28.66-2.14-33.41-2.8-1.2-6.36-2.76-11.03-5l-15.51,32.33Zm21.98-45.81c2.17,1.47,8.27,4.47,11.13,5.84,9.57,4.59,17.09.74,21.44-8.31,3.61-7.53,3.23-14.96-8.85-20.76-3.56-1.71-7.46-3.15-10.72-3.85l-12.99,27.08Z"/>
      <path class="cls-1" d="m757.22,285.55l-15.71-14.56,65.39-70.55,5.74,5.32c4.84,4.49,11.77,9.49,21.02,18.07,12.91,11.97,21.06,28.7,5.53,45.46-10.03,10.83-20.3,12.96-30.24,9.48,1.66,9.92-6.09,24.1-9.05,36.71-.68,2.64-1.27,5.27-1.9,7.86l-17.33-16.06c.16-1.79.66-3.19,2.14-7.46,3.91-11.74,13.17-25.92,7.83-32.54-2.32-1.97-5.26-4.52-9.05-8.04l-24.38,26.3Zm34.54-37.27c1.63,2.05,6.58,6.71,8.9,8.87,7.79,7.22,16.11,5.76,22.93-1.6,5.68-6.12,7.51-13.34-2.32-22.45-2.9-2.68-6.2-5.21-9.1-6.85l-20.42,22.03Z"/>
      <path class="cls-1" d="m841.97,302.61c28.29-18.13,50.94-10.22,65.92,11.15,15.37,21.96,8.49,46.49-16.93,62.85-28.29,18.13-51.03,11.37-65.77-9.77-15.97-22.96-8.62-47.96,16.79-64.24Zm37.4,55.51c15.55-10.39,23.08-23.83,15.06-35.83-7.19-10.76-20.54-14.77-40.93-1.14-15.66,10.47-23.51,24.82-15.13,37.36,7.7,11.52,21.15,12.89,41.01-.39Zm33.67-62.28c2.64.57,22.97,4.66,26.81,3.65l1.17,16.66c-9.05-.49-23.86-4.14-29.04-8.15l1.06-12.16Z"/>
      <path class="cls-1" d="m849.03,422.53l93.09-24.24,5.01,19.23-45.02,48.04-11.97,10.27,21.14-7.71,45.92-11.95,4.93,18.92-93.09,24.24-5.37-20.61,43.88-46,12.75-11.15-21.38,8.04-44.98,11.71-4.89-18.79Z"/>
    </g>
  </g>
  <g>
    <g>
      <path class="cls-1" d="m257.07,608.95l1.75,8.47c1.07,5.17,4.42,16.22,6.23,25.02,6.64,32.22-7.43,50.36-36.92,56.43-32.8,6.76-55.59-7.29-61.57-37.62-1.66-8.69-2.54-17.55-4-24.67l-1.61-7.83,96.13-19.81Zm-75.86,38.02c-.23,3.15.53,8.12,1.46,12.65,3.21,14.58,15.39,22.32,38.74,17.51,24.58-5.07,31.48-15.46,27.87-32.99-.79-3.82-2.16-8.19-3.12-10.55l-64.95,13.39Z"/>
      <path class="cls-1" d="m234.52,715.05c30.38-15.89,52.69-5.82,66,17.24,13.66,23.7,4.46,48.01-22.85,62.37-30.38,15.89-52.89,6.98-65.98-15.83-14.17-24.77-4.46-49.52,22.83-63.79Zm33.04,59.77c16.74-9.17,25.6-22.15,18.52-35.07-6.35-11.59-19.55-16.86-41.5-4.83-16.86,9.23-26.12,23.12-18.73,36.62,6.79,12.4,20.34,14.99,41.71,3.29Z"/>
      <path class="cls-1" d="m263.68,843.16l71.18-67.57,13.96,14.71-16.51,65.12-5.62,15.08,15.07-17.31,35.11-33.33,13.73,14.47-71.18,67.57-14.96-15.76,16.49-62.74,5.89-16.25-15.13,17.73-34.39,32.65-13.64-14.37Z"/>
    </g>
    <g>
      <path class="cls-1" d="m417.79,959.35l28.18-94.66,29.26,5.25,4.12,53.35.66,22.87,7.79-21.35,21.3-48.79,28.22,5.06-5.49,98.73-20.8-3.73,4.99-54,3.37-27.78-11.2,26.91-24.38,50.65-17.75-3.18-6.3-56.16-1.54-29.2-6.69,27.19-13.7,52.43-20.02-3.59Z"/>
      <path class="cls-1" d="m620.13,957.09l-35.75,2.81-4.49,20.49-22.85,1.8,27.28-101.39,23.9-1.88,42.78,95.89-23.11,1.82-7.76-19.53Zm-32.29-12.97l26.27-2.06-12.72-32.06-3.95-11.48-2.24,11.97-7.36,33.64Z"/>
      <path class="cls-1" d="m697.63,957.35l-20.4,7.85-35.26-91.6,7.46-2.87c6.29-2.42,13.98-6.51,26-11.14,16.77-6.45,35.75-6.4,44.13,15.36,5.41,14.05,2.75,24.42-4.89,31.96,9.84,2.94,19.34,16.41,29.57,24.78,2.11,1.81,4.26,3.53,6.35,5.27l-22.5,8.66c-1.57-.95-2.62-2.03-5.87-5.31-9-8.85-17.83-23.71-26.3-21.8-2.85,1.24-6.5,2.79-11.43,4.68l13.15,34.15Zm-18.63-48.39c2.61-.58,9.1-3.01,12.12-4.17,10.11-3.89,12.51-12.18,8.83-21.73-3.06-7.95-8.85-12.87-21.61-7.96-3.76,1.45-7.56,3.34-10.36,5.26l11.01,28.6Z"/>
      <path class="cls-1" d="m802.87,895.59l-17.02,13.72-61.59-76.42,6.22-5.01c5.25-4.23,11.32-10.48,21.35-18.56,13.99-11.27,32.08-17.03,46.71,1.12,9.45,11.73,10.09,22.41,5.12,31.93,10.26-.21,23.43,9.7,35.73,14.55,2.56,1.07,5.13,2.05,7.65,3.08l-18.77,15.13c-1.79-.43-3.12-1.13-7.21-3.26-11.27-5.67-24.23-17.12-31.7-12.71-2.33,2.05-5.34,4.64-9.45,7.96l22.96,28.49Zm-32.54-40.37c2.31-1.35,7.75-5.65,10.27-7.68,8.43-6.8,8.19-15.42,1.76-23.39-5.35-6.63-12.36-9.55-23.01-.97-3.14,2.53-6.18,5.49-8.25,8.18l19.23,23.86Z"/>
      <path class="cls-1" d="m833,803.63c-29.72-17.09-33.21-41.32-20.91-64.93,12.65-24.25,38.1-29.55,64.88-14.23,29.72,17.09,34.3,40.86,22.1,64.15-13.28,25.26-39.38,30.36-66.06,15.01Zm32.67-59.98c-16.73-9.19-32.43-9.69-39.53,3.22-6.36,11.58-3.72,25.54,18.22,37.6,16.84,9.26,33.53,9.61,40.95-3.87,6.81-12.39,1.72-25.21-19.64-36.95Zm-72.23-1.19c-.72-2.66-6.58-22.99-9.3-25.99l14.54-8.89c3.81,8.43,7.48,23.56,6.28,30.13l-11.51,4.75Z"/>
      <path class="cls-1" d="m933.59,714.3l-92.81-31.94,6.6-19.17,65.38-15.43,15.98-1.98-22.32-5.38-45.78-15.75,6.49-18.86,92.81,31.94-7.07,20.55-63.26,14.34-17.13,2.28,22.72,5.23,44.84,15.43-6.45,18.74Z"/>
    </g>
  </g>
  <path class="cls-1" d="m419.49,397.52v270.05h48.11s25-.02,25-.02c34.48,0,46.07-35.74,46.07-112.28s-10.89-109.44-45.55-109.44h-25.69l.02,204.69h-30.9v-235.94h235.62v235.94h-30.64l.02-204.69h-25.69c-34.66,0-45.55,34.16-45.55,109.44s11.58,112.28,46.07,112.28l25.16.02h0s47.7,0,47.7,0v-270.05h-269.73Z"/>
</svg>