<?xml version="1.0" encoding="UTF-8"?>
<svg id="Layer_1" data-name="Layer 1" xmlns="http://www.w3.org/2000/svg" viewBox="0 0 1080 1080">
  <defs>
    <style>
      .cls-1 {
        fill: #fff;
        stroke-width: 0px;
      }
    </style>
  </defs>
  <g>
    <path class="cls-1" d="m304.88,518.18h6c3.66,0,11.63-.73,17.86-.73,22.81,0,33.15,12.09,33.15,32.97,0,23.22-12.73,36.73-34.16,36.54-6.14-.09-12.27-.73-17.31-.73h-5.54v-68.05Zm15.2,56.83c2.11.6,5.59.78,8.79.78,10.35-.14,17.31-7.33,17.31-23.86,0-17.4-6.09-23.54-18.5-23.54-2.7,0-5.86.32-7.6.64v45.98Z"/>
    <path class="cls-1" d="m376.54,551.83c.46-23.77,14.01-33.98,32.47-34.39,18.96-.41,30.68,13.28,30.31,34.66-.46,23.77-13.37,34.48-31.6,34.85-19.78.37-31.6-13.78-31.18-35.12Zm47.35-.18c0-13.23-4.95-22.94-15.16-22.94-9.16,0-16.76,6.27-16.76,23.63,0,13.33,5.36,23.58,16.03,23.58,9.8,0,15.89-7.37,15.89-24.27Z"/>
    <path class="cls-1" d="m457.72,586.22v-68.05h14.06l24.86,39.38,4.9,10.03-1.51-15.84v-33.57h13.83v68.05h-15.07l-23.67-38.24-5.36-10.71,1.69,16.07v32.88h-13.74Z"/>
    <path class="cls-1" d="m578.47,586.22l7.65-68.05h20.61l9.34,35.9,3.25,15.52,2.7-15.52,8.56-35.9h19.87l8.33,68.05h-14.65l-3.21-37.46-1.1-19.37-4.35,19.74-10.44,37.55h-12.5l-11.17-37.55-4.62-19.74-1.24,19.37-2.93,37.46h-14.1Z"/>
    <path class="cls-1" d="m714.1,572.3h-24.86l-4.21,13.92h-15.89l24.36-68.6h16.62l24.36,68.6h-16.07l-4.3-13.92Zm-21.61-10.72h18.27l-7.05-22.85-2.11-8.15-2.2,8.15-6.91,22.85Z"/>
    <path class="cls-1" d="m763.69,586.22h-15.16v-68.05h5.54c4.67,0,10.67-.73,19.6-.73,12.46,0,24.73,4.76,24.73,20.93,0,10.44-4.3,16.49-11.13,19.46,5.63,4.35,8.43,15.43,12.96,23.4.92,1.69,1.88,3.34,2.79,4.99h-16.71c-.78-1.01-1.19-1.97-2.47-4.9-3.62-7.97-5.63-19.78-11.59-20.65-2.15.09-4.9.18-8.56.18v25.37Zm0-35.95c1.83.28,6.64.32,8.88.32,7.51,0,11.13-4.76,11.13-11.86,0-5.91-2.52-10.53-12-10.53-2.79,0-5.72.28-8.01.82v21.25Z"/>
    <path class="cls-1" d="m834.66,586.22h-15.16v-68.05h5.54c4.67,0,10.67-.73,19.6-.73,12.46,0,24.73,4.76,24.73,20.93,0,10.44-4.3,16.49-11.13,19.46,5.63,4.35,8.43,15.43,12.96,23.4.92,1.69,1.88,3.34,2.79,4.99h-16.71c-.78-1.01-1.19-1.97-2.47-4.9-3.62-7.97-5.63-19.78-11.59-20.65-2.15.09-4.9.18-8.56.18v25.37Zm0-35.95c1.83.28,6.64.32,8.88.32,7.51,0,11.13-4.76,11.13-11.86,0-5.91-2.52-10.53-12-10.53-2.79,0-5.72.28-8.01.82v21.25Z"/>
    <path class="cls-1" d="m885.53,551.83c.46-23.77,14.01-33.98,32.47-34.39,18.96-.41,30.68,13.28,30.31,34.66-.46,23.77-13.37,34.48-31.6,34.85-19.78.37-31.6-13.78-31.18-35.12Zm47.35-.18c0-13.23-4.95-22.94-15.16-22.94-9.16,0-16.76,6.27-16.76,23.63,0,13.33,5.36,23.58,16.03,23.58,9.8,0,15.89-7.37,15.89-24.27Zm-23.4-44.28c1.37-1.33,11.77-11.68,12.68-14.33l10.26,5.86c-3.85,5.13-11.81,12.41-16.21,13.88l-6.73-5.4Z"/>
    <path class="cls-1" d="m966.71,586.22v-68.05h14.06l24.86,39.38,4.9,10.03-1.51-15.84v-33.57h13.83v68.05h-15.07l-23.67-38.24-5.36-10.71,1.69,16.07v32.88h-13.74Z"/>
  </g>
  <path class="cls-1" d="m55.52,446v188.01h33.49s17.4-.02,17.4-.02c24.01,0,32.07-24.88,32.07-78.17s-7.58-76.19-31.71-76.19h-17.89v142.5s-21.5,0-21.5,0v-164.26h164.04v164.26h-21.33v-142.5s-17.87,0-17.87,0c-24.13,0-31.71,23.78-31.71,76.19s8.06,78.17,32.07,78.17l17.51.02h0s33.21,0,33.21,0v-188.01H55.52Z"/>
</svg>