<svg viewBox="429.84000000000003 341.28000000000003 241.92000000000002 241.92000000000002" xmlns="http://www.w3.org/2000/svg" data-name="Layer 1" id="Layer_1" style="max-height: 500px" width="241.92000000000002" height="241.92000000000002">
  <defs>
    <style>
      .cls-1 {
        fill: #fff;
        stroke-width: 0px;
      }
    </style>
  </defs>
  <g>
    <path d="m120.12,648.43h7.16c4.37,0,13.89-.87,21.32-.87,27.22,0,39.58,14.43,39.58,39.36,0,27.72-15.2,43.84-40.78,43.62-7.32-.11-14.65-.87-20.66-.87h-6.61v-81.23Zm18.15,67.84c2.51.71,6.67.93,10.5.93,12.35-.16,20.66-8.75,20.66-28.48,0-20.77-7.27-28.1-22.08-28.1-3.23,0-7,.38-9.07.77v54.88Z" class="cls-1"/>
    <path d="m205.67,688.61c.55-28.37,16.73-40.56,38.76-41.05,22.63-.49,36.63,15.85,36.19,41.38-.55,28.37-15.96,41.16-37.72,41.6-23.62.44-37.72-16.45-37.23-41.93Zm56.52-.22c0-15.8-5.9-27.39-18.1-27.39-10.93,0-20.01,7.49-20.01,28.21,0,15.91,6.4,28.15,19.13,28.15,11.7,0,18.97-8.8,18.97-28.97Z" class="cls-1"/>
    <path d="m302.58,729.66v-81.23h16.78l29.68,47.01,5.85,11.97-1.8-18.91v-40.07h16.51v81.23h-17.99l-28.26-45.65-6.4-12.79,2.02,19.19v39.25h-16.4Z" class="cls-1"/>
    <path d="m446.73,729.66l9.13-81.23h24.6l11.15,42.86,3.88,18.53,3.23-18.53,10.22-42.86h23.72l9.95,81.23h-17.49l-3.83-44.72-1.31-23.12-5.19,23.56-12.46,44.83h-14.92l-13.34-44.83-5.52-23.56-1.48,23.12-3.5,44.72h-16.84Z" class="cls-1"/>
    <path d="m608.64,713.04h-29.68l-5.03,16.62h-18.97l29.08-81.89h19.84l29.08,81.89h-19.19l-5.14-16.62Zm-25.8-12.79h21.81l-8.42-27.28-2.52-9.73-2.62,9.73-8.25,27.28Z" class="cls-1"/>
    <path d="m667.84,729.66h-18.09v-81.23h6.61c5.58,0,12.74-.87,23.4-.87,14.87,0,29.52,5.69,29.52,24.98,0,12.46-5.14,19.68-13.28,23.23,6.72,5.19,10.06,18.42,15.47,27.93,1.09,2.02,2.24,3.99,3.33,5.96h-19.95c-.93-1.2-1.42-2.35-2.95-5.85-4.32-9.51-6.72-23.62-13.83-24.65-2.57.11-5.85.22-10.22.22v30.29Zm0-42.91c2.19.33,7.93.38,10.6.38,8.96,0,13.28-5.69,13.28-14.16,0-7.05-3.01-12.57-14.32-12.57-3.33,0-6.83.33-9.57.98v25.36Z" class="cls-1"/>
    <path d="m752.56,729.66h-18.09v-81.23h6.61c5.58,0,12.74-.87,23.4-.87,14.87,0,29.52,5.69,29.52,24.98,0,12.46-5.14,19.68-13.28,23.23,6.72,5.19,10.06,18.42,15.47,27.93,1.09,2.02,2.24,3.99,3.33,5.96h-19.95c-.93-1.2-1.42-2.35-2.95-5.85-4.32-9.51-6.72-23.62-13.83-24.65-2.57.11-5.85.22-10.22.22v30.29Zm0-42.91c2.19.33,7.93.38,10.6.38,8.96,0,13.28-5.69,13.28-14.16,0-7.05-3.01-12.57-14.32-12.57-3.33,0-6.83.33-9.57.98v25.36Z" class="cls-1"/>
    <path d="m813.29,688.61c.55-28.37,16.73-40.56,38.76-41.05,22.63-.49,36.63,15.85,36.19,41.38-.55,28.37-15.96,41.16-37.72,41.6-23.62.44-37.72-16.45-37.23-41.93Zm56.52-.22c0-15.8-5.9-27.39-18.1-27.39-10.93,0-20.01,7.49-20.01,28.21,0,15.91,6.4,28.15,19.13,28.15,11.7,0,18.97-8.8,18.97-28.97Zm-27.93-52.86c1.64-1.59,14.05-13.94,15.14-17.11l12.25,7c-4.59,6.12-14.1,14.81-19.35,16.56l-8.04-6.45Z" class="cls-1"/>
    <path d="m910.21,729.66v-81.23h16.78l29.68,47.01,5.85,11.97-1.8-18.91v-40.07h16.51v81.23h-17.99l-28.26-45.65-6.4-12.79,2.02,19.19v39.25h-16.4Z" class="cls-1"/>
    </g>
    
    <path d="m436.59,349.45v224.44h39.99s20.77-.02,20.77-.02c28.66,0,38.29-29.7,38.29-93.32s-9.05-90.95-37.86-90.95h-21.35v170.11s-25.66,0-25.66,0v-196.09h195.82v196.09h-25.46v-170.11s-21.34,0-21.34,0c-28.8,0-37.86,28.39-37.86,90.95s9.63,93.32,38.29,93.32l20.91.02h0s39.64,0,39.64,0v-224.44h-224.17Z" class="cls-1"/>
</svg>